<svg width="6" height="11" viewBox="0 0 6 11" fill="none" xmlns="http://www.w3.org/2000/svg">
<path d="M2.55094 1.08771C3.08089 2.20252 1.44978 2.9597 0.701475 2.12348C0.389662 1.76723 0.533078 1.07877 1.28941 0.704651C1.66792 0.513122 2.19787 0.339005 2.55094 1.08771Z" fill="black"/>
<path d="M5.88699 0.597202C6.46355 1.81075 4.68702 2.63529 3.87269 1.72484C3.53322 1.33651 3.68913 0.587809 4.51349 0.180237C4.92523 -0.0284747 5.50202 -0.217484 5.88699 0.597202Z" fill="black"/>
<path fill-rule="evenodd" clip-rule="evenodd" d="M2.47535 10.9712C3.68201 11.113 4.93796 10.7265 5.42308 9.92829C5.83326 9.25863 5.49758 9.02677 5.02495 9.56745C4.03018 10.7395 2.99794 10.2115 2.56278 9.02677L2.67475 8.98829C4.77626 8.12549 6.09444 5.78223 5.26137 4.45596C4.11694 2.6275 0.535552 4.2626 0.0876829 6.82511C-0.322715 9.19425 0.746773 10.778 2.47535 10.9712ZM3.76897 4.58495C4.12963 5.17718 3.69447 7.27598 2.38856 8.22881C2.35131 7.93235 2.35131 7.6107 2.37607 7.27598C2.63725 4.9325 3.38355 3.96706 3.76897 4.58495Z" fill="black"/>
</svg>
